<svg width="47" height="47" viewBox="0 0 47 47" fill="none" xmlns="http://www.w3.org/2000/svg">
<g clip-path="url(#clip0)">
<path d="M23.5027 47.0163C36.4829 47.0163 47.0054 36.4913 47.0054 23.5082C47.0054 10.525 36.4829 0 23.5027 0C10.5225 0 0 10.525 0 23.5082C0 36.4913 10.5225 47.0163 23.5027 47.0163Z" fill="white"/>
<path d="M37.0441 9.953C37.7024 10.6115 38.3117 11.308 38.883 12.0426C38.7687 11.8957 38.6545 11.7488 38.5402 11.6018C39.6501 13.0548 40.5749 14.6383 41.2876 16.3198C41.2169 16.1457 41.1407 15.9715 41.07 15.7974C41.799 17.5387 42.2941 19.3672 42.5444 21.2337C42.5172 21.0432 42.49 20.8473 42.4682 20.6568C42.713 22.5397 42.713 24.4443 42.4682 26.3271C42.4954 26.1366 42.5226 25.9407 42.5444 25.7503C42.2941 27.6168 41.799 29.4452 41.07 31.1865C41.1407 31.0124 41.2169 30.8383 41.2876 30.6641C40.5749 32.3456 39.6555 33.9346 38.5402 35.3821C38.6545 35.2352 38.7687 35.0882 38.883 34.9413C37.7459 36.4106 36.4239 37.7329 34.955 38.8702C35.1019 38.7559 35.2487 38.6417 35.3956 38.5274C33.943 39.6375 32.3599 40.5626 30.6788 41.2755C30.8529 41.2047 31.027 41.1285 31.2011 41.0578C29.4601 41.787 27.6321 42.2822 25.766 42.5325C25.9565 42.5053 26.1523 42.4781 26.3427 42.4563C24.4603 42.7012 22.5562 42.7012 20.6738 42.4563C20.8642 42.4835 21.0601 42.5107 21.2505 42.5325C19.3844 42.2822 17.5564 41.787 15.8155 41.0578C15.9896 41.1285 16.1637 41.2047 16.3378 41.2755C14.6567 40.5626 13.068 39.6429 11.6209 38.5274C11.7678 38.6417 11.9147 38.7559 12.0616 38.8702C10.5926 37.7329 9.27062 36.4106 8.13357 34.9413C8.24781 35.0882 8.36206 35.2352 8.47631 35.3821C7.36646 33.9292 6.44159 32.3456 5.72889 30.6641C5.79961 30.8383 5.87578 31.0124 5.94651 31.1865C5.21749 29.4452 4.72241 27.6168 4.47215 25.7503C4.49935 25.9407 4.52655 26.1366 4.54831 26.3271C4.30349 24.4443 4.30349 22.5397 4.54831 20.6568C4.52111 20.8473 4.49391 21.0432 4.47215 21.2337C4.72241 19.3672 5.21749 17.5387 5.94651 15.7974C5.87578 15.9715 5.79961 16.1457 5.72889 16.3198C6.44159 14.6383 7.36102 13.0493 8.47631 11.6018C8.36206 11.7488 8.24781 11.8957 8.13357 12.0426C9.27062 10.5734 10.5926 9.25103 12.0616 8.11371C11.9147 8.22798 11.7678 8.34226 11.6209 8.45654C13.0735 7.34643 14.6567 6.42134 16.3378 5.70848C16.1637 5.77922 15.9896 5.8554 15.8155 5.92614C17.5564 5.19696 19.3844 4.70176 21.2505 4.45144C21.0601 4.47865 20.8642 4.50586 20.6738 4.52763C22.5562 4.28275 24.4603 4.28275 26.3427 4.52763C26.1523 4.50042 25.9565 4.47321 25.766 4.45144C27.6321 4.70176 29.4601 5.19696 31.2011 5.92614C31.027 5.8554 30.8529 5.77922 30.6788 5.70848C32.3599 6.42134 33.9485 7.34099 35.3956 8.45654C35.2487 8.34226 35.1019 8.22798 34.955 8.11371C35.6894 8.68509 36.3858 9.29456 37.0441 9.953C37.8493 10.7584 39.3236 10.8182 40.1234 9.953C40.9177 9.08777 40.983 7.73279 40.1234 6.873C36.7394 3.50459 32.3055 1.13744 27.5832 0.353839C25.2873 -0.02708 22.9805 -0.125031 20.6684 0.174263C19.4062 0.337514 18.1603 0.560624 16.9362 0.919776C15.7393 1.26805 14.5696 1.73059 13.438 2.25299C9.06932 4.27731 5.34262 7.79809 2.99779 11.9936C0.712799 16.0858 -0.358969 20.9126 0.103469 25.587C0.342848 28.0195 0.903214 30.354 1.84985 32.6068C2.81825 34.9032 4.11852 36.9874 5.74521 38.8865C8.86258 42.5325 13.1877 45.1772 17.8448 46.3145C22.3767 47.4191 27.2785 47.2015 31.6526 45.5418C32.8277 45.0955 33.9757 44.584 35.0692 43.9637C36.1954 43.327 37.2399 42.5815 38.2519 41.7815C40.1723 40.2633 41.8154 38.4077 43.1646 36.3779C45.7597 32.4708 47.1089 27.6984 47.0001 23.0077C46.8913 18.3006 45.3789 13.5826 42.5825 9.77887C41.8262 8.75583 41.0211 7.77088 40.1234 6.873C39.3182 6.06763 37.8384 6.00777 37.0441 6.873C36.2443 7.74367 36.1845 9.09322 37.0441 9.953Z" fill="#474645"/>
<path d="M15.4671 17.2012C15.4671 17.2774 15.4617 17.3536 15.4508 17.4243C15.478 17.2339 15.5052 17.038 15.527 16.8475C15.5052 16.9944 15.4671 17.1305 15.4127 17.272C15.4835 17.0978 15.5596 16.9237 15.6304 16.7496C15.5705 16.8802 15.4998 16.9999 15.4127 17.1196C15.527 16.9727 15.6412 16.8258 15.7555 16.6788C15.663 16.7931 15.5651 16.8911 15.4563 16.9781C15.6032 16.8638 15.75 16.7496 15.8969 16.6353C15.7827 16.7224 15.6576 16.7931 15.527 16.853C15.7011 16.7822 15.8752 16.706 16.0493 16.6353C15.9133 16.6897 15.7718 16.7278 15.6249 16.7496C15.8153 16.7224 16.0112 16.6952 16.2016 16.6734C16.0493 16.6897 15.9024 16.6897 15.75 16.6734C15.9405 16.7006 16.1363 16.7278 16.3267 16.7496C16.1798 16.7278 16.0438 16.6897 15.9024 16.6353C16.0765 16.706 16.2506 16.7822 16.4247 16.853C16.2941 16.7931 16.1744 16.7224 16.0547 16.6353C16.2016 16.7496 16.3485 16.8638 16.4954 16.9781C16.3811 16.8856 16.2832 16.7877 16.1962 16.6788C16.3104 16.8258 16.4247 16.9727 16.5389 17.1196C16.4519 17.0053 16.3811 16.8802 16.3213 16.7496C16.392 16.9237 16.4682 17.0978 16.5389 17.272C16.4845 17.1359 16.4464 16.9944 16.4247 16.8475C16.4519 17.038 16.4791 17.2339 16.5008 17.4243C16.4845 17.272 16.4845 17.125 16.5008 16.9727C16.4736 17.1631 16.4464 17.359 16.4247 17.5495C16.4464 17.4026 16.4845 17.2665 16.5389 17.125C16.4682 17.2992 16.392 17.4733 16.3213 17.6475C16.3811 17.5168 16.4519 17.3971 16.5389 17.2774C16.4247 17.4243 16.3104 17.5713 16.1962 17.7182C16.2887 17.6039 16.3866 17.506 16.4954 17.4189C16.3485 17.5332 16.2016 17.6475 16.0547 17.7617C16.169 17.6747 16.2941 17.6039 16.4247 17.5441C16.2506 17.6148 16.0765 17.691 15.9024 17.7617C16.0384 17.7073 16.1798 17.6692 16.3267 17.6475C16.1363 17.6747 15.9405 17.7019 15.75 17.7236C15.9024 17.7073 16.0493 17.7073 16.2016 17.7236C16.0112 17.6964 15.8153 17.6692 15.6249 17.6475C15.7718 17.6692 15.9078 17.7073 16.0493 17.7617C15.8752 17.691 15.7011 17.6148 15.527 17.5441C15.6576 17.6039 15.7772 17.6747 15.8969 17.7617C15.75 17.6475 15.6032 17.5332 15.4563 17.4189C15.5705 17.5114 15.6684 17.6094 15.7555 17.7182C15.6412 17.5713 15.527 17.4243 15.4127 17.2774C15.4998 17.3917 15.5705 17.5168 15.6304 17.6475C15.5596 17.4733 15.4835 17.2992 15.4127 17.125C15.4671 17.2611 15.5052 17.4026 15.527 17.5495C15.4998 17.359 15.4726 17.1631 15.4508 16.9727C15.4617 17.0489 15.4671 17.125 15.4671 17.2012C15.478 17.7672 15.7011 18.3385 16.1037 18.7412C16.4791 19.1167 17.0993 19.4051 17.6433 19.3779C18.8021 19.3235 19.8467 18.4202 19.8195 17.2012C19.7814 15.5034 18.7314 14.1049 17.1374 13.5444C15.7772 13.0655 14.0798 13.5281 13.1441 14.6219C12.0614 15.8843 11.8057 17.6801 12.6599 19.1439C13.5195 20.6132 15.2114 21.2662 16.8545 20.9397C18.5954 20.5914 19.776 18.9208 19.8141 17.2067C19.8413 16.0694 18.7967 14.9756 17.6379 15.03C16.4464 15.079 15.4943 15.9823 15.4671 17.2012Z" fill="#474645"/>
<path d="M30.5101 17.3046C30.5101 17.3808 30.5047 17.457 30.4938 17.5277C30.521 17.3373 30.5482 17.1414 30.57 16.9509C30.5482 17.0978 30.5101 17.2339 30.4557 17.3754C30.5264 17.2012 30.6026 17.0271 30.6733 16.853C30.6135 16.9836 30.5428 17.1033 30.4557 17.223C30.57 17.0761 30.6842 16.9291 30.7985 16.7822C30.706 16.8965 30.608 16.9945 30.4992 17.0815C30.6461 16.9672 30.793 16.853 30.9399 16.7387C30.8257 16.8258 30.7005 16.8965 30.57 16.9564C30.744 16.8856 30.9181 16.8094 31.0922 16.7387C30.9562 16.7931 30.8148 16.8312 30.6679 16.853C30.8583 16.8258 31.0542 16.7985 31.2446 16.7768C31.0922 16.7931 30.9453 16.7931 30.793 16.7768C30.9834 16.804 31.1793 16.8312 31.3697 16.853C31.2228 16.8312 31.0868 16.7931 30.9453 16.7387C31.1194 16.8094 31.2935 16.8856 31.4676 16.9564C31.3371 16.8965 31.2174 16.8258 31.0977 16.7387C31.2446 16.853 31.3915 16.9672 31.5384 17.0815C31.4241 16.989 31.3262 16.8911 31.2391 16.7822C31.3534 16.9291 31.4676 17.0761 31.5819 17.223C31.4948 17.1087 31.4241 16.9836 31.3643 16.853C31.435 17.0271 31.5112 17.2012 31.5819 17.3754C31.5275 17.2393 31.4894 17.0978 31.4676 16.9509C31.4948 17.1414 31.522 17.3373 31.5438 17.5277C31.5275 17.3754 31.5275 17.2284 31.5438 17.0761C31.5166 17.2665 31.4894 17.4624 31.4676 17.6529C31.4894 17.506 31.5275 17.3699 31.5819 17.2284C31.5112 17.4026 31.435 17.5767 31.3643 17.7508C31.4241 17.6202 31.4948 17.5005 31.5819 17.3808C31.4676 17.5277 31.3534 17.6747 31.2391 17.8216C31.3316 17.7073 31.4295 17.6094 31.5384 17.5223C31.3915 17.6366 31.2446 17.7508 31.0977 17.8651C31.2119 17.7781 31.3371 17.7073 31.4676 17.6475C31.2935 17.7182 31.1194 17.7944 30.9453 17.8651C31.0814 17.8107 31.2228 17.7726 31.3697 17.7508C31.1793 17.7781 30.9834 17.8053 30.793 17.827C30.9453 17.8107 31.0922 17.8107 31.2446 17.827C31.0542 17.7998 30.8583 17.7726 30.6679 17.7508C30.8148 17.7726 30.9508 17.8107 31.0922 17.8651C30.9181 17.7944 30.744 17.7182 30.57 17.6475C30.7005 17.7073 30.8202 17.7781 30.9399 17.8651C30.793 17.7508 30.6461 17.6366 30.4992 17.5223C30.6135 17.6148 30.7114 17.7128 30.7985 17.8216C30.6842 17.6747 30.57 17.5277 30.4557 17.3808C30.5428 17.4951 30.6135 17.6202 30.6733 17.7508C30.6026 17.5767 30.5264 17.4026 30.4557 17.2284C30.5101 17.3645 30.5482 17.506 30.57 17.6529C30.5428 17.4624 30.5155 17.2665 30.4938 17.0761C30.5047 17.1577 30.5101 17.2284 30.5101 17.3046C30.521 17.8706 30.744 18.4419 31.1466 18.8446C31.522 19.2201 32.1422 19.5085 32.6863 19.4813C33.8451 19.4269 34.8897 18.5236 34.8625 17.3046C34.8244 15.6068 33.7744 14.2083 32.1803 13.6478C30.8202 13.1689 29.1228 13.6315 28.187 14.7253C27.1044 15.9877 26.8487 17.7835 27.7028 19.2473C28.5624 20.7166 30.2544 21.3696 31.8974 21.0431C33.6384 20.6948 34.8189 19.0242 34.857 17.3101C34.8842 16.1728 33.8397 15.079 32.6808 15.1334C31.4839 15.1824 30.5373 16.0857 30.5101 17.3046Z" fill="#474645"/>
<path d="M16.2343 33.2107C17.8827 33.2107 19.5257 33.2107 21.1742 33.2107C23.7747 33.2107 26.3753 33.2107 28.9812 33.2107C29.5797 33.2107 30.1781 33.2107 30.7766 33.2107C31.9136 33.2107 33.0072 32.2095 32.9528 31.034C32.8984 29.8532 31.9952 28.8574 30.7766 28.8574C29.1281 28.8574 27.4851 28.8574 25.8367 28.8574C23.2361 28.8574 20.6356 28.8574 18.0296 28.8574C17.4312 28.8574 16.8327 28.8574 16.2343 28.8574C15.0972 28.8574 14.0037 29.8586 14.0581 31.034C14.1125 32.2149 15.0156 33.2107 16.2343 33.2107Z" fill="#474645"/>
</g>
<defs>
<clipPath id="clip0">
<rect width="47" height="47" fill="white"/>
</clipPath>
</defs>
</svg>
