<svg width="48" height="48" viewBox="0 0 48 48" fill="none" xmlns="http://www.w3.org/2000/svg">
<path d="M0 24C0 10.7452 10.7452 0 24 0V0C37.2548 0 48 10.7452 48 24V24C48 37.2548 37.2548 48 24 48V48C10.7452 48 0 37.2548 0 24V24Z" fill="#474645"/>
<path d="M11.1221 29V19.6943H12.3853L17.2729 27.0005V19.6943H18.4536V29H17.1904L12.3027 21.6875V29H11.1221ZM20.5293 29V19.6943H24.0396C24.6574 19.6943 25.1292 19.724 25.4551 19.7832C25.9121 19.8594 26.2951 20.0054 26.604 20.2212C26.9129 20.4328 27.1605 20.7311 27.3467 21.1162C27.5371 21.5013 27.6323 21.9245 27.6323 22.3857C27.6323 23.1771 27.3805 23.8478 26.877 24.3979C26.3734 24.9438 25.4635 25.2168 24.1475 25.2168H21.7607V29H20.5293ZM21.7607 24.1187H24.1665C24.9621 24.1187 25.527 23.9705 25.8613 23.6743C26.1956 23.3781 26.3628 22.9613 26.3628 22.4238C26.3628 22.0345 26.2633 21.7023 26.0645 21.4272C25.8698 21.1479 25.6117 20.9639 25.29 20.875C25.0827 20.82 24.6997 20.7925 24.1411 20.7925H21.7607V24.1187ZM28.7812 26.0103L29.9429 25.9087C29.9979 26.3742 30.1248 26.7572 30.3237 27.0576C30.5269 27.3538 30.84 27.5951 31.2632 27.7812C31.6864 27.9632 32.1624 28.0542 32.6914 28.0542C33.1611 28.0542 33.5758 27.9844 33.9355 27.8447C34.2952 27.7051 34.5618 27.5146 34.7354 27.2734C34.9131 27.028 35.002 26.7614 35.002 26.4736C35.002 26.1816 34.9173 25.9277 34.748 25.7119C34.5788 25.4919 34.2995 25.3078 33.9102 25.1597C33.6605 25.0623 33.1082 24.9121 32.2534 24.709C31.3986 24.5016 30.7998 24.307 30.457 24.125C30.0127 23.8923 29.6805 23.6045 29.4604 23.2617C29.2446 22.9147 29.1367 22.5275 29.1367 22.1001C29.1367 21.6304 29.27 21.1924 29.5366 20.7861C29.8032 20.3757 30.1925 20.0646 30.7046 19.853C31.2166 19.6414 31.7858 19.5356 32.4121 19.5356C33.1019 19.5356 33.7091 19.6478 34.2339 19.8721C34.7629 20.0921 35.1691 20.418 35.4526 20.8496C35.7362 21.2812 35.8885 21.77 35.9097 22.3159L34.729 22.4048C34.6655 21.8166 34.4497 21.3722 34.0815 21.0718C33.7176 20.7713 33.1781 20.6211 32.4629 20.6211C31.7181 20.6211 31.1743 20.7586 30.8315 21.0337C30.493 21.3045 30.3237 21.6325 30.3237 22.0176C30.3237 22.3519 30.4443 22.627 30.6855 22.8428C30.9225 23.0586 31.5404 23.2808 32.5391 23.5093C33.542 23.7336 34.2297 23.9303 34.6021 24.0996C35.1437 24.3493 35.5436 24.6667 35.8018 25.0518C36.0599 25.4326 36.189 25.8727 36.189 26.3721C36.189 26.8672 36.0472 27.3348 35.7637 27.7749C35.4801 28.2108 35.0718 28.5514 34.5386 28.7969C34.0096 29.0381 33.4129 29.1587 32.7485 29.1587C31.9064 29.1587 31.1997 29.036 30.6284 28.7905C30.0614 28.5451 29.6149 28.1769 29.2891 27.686C28.9674 27.1909 28.7982 26.6323 28.7812 26.0103Z" fill="white"/>
</svg>
