<svg width="47" height="47" viewBox="0 0 47 47" fill="none" xmlns="http://www.w3.org/2000/svg">
<g clip-path="url(#clip0)">
<path d="M23.4864 46.9946C36.4576 46.9946 46.9728 36.4745 46.9728 23.4973C46.9728 10.5201 36.4576 0 23.4864 0C10.5152 0 0 10.5201 0 23.4973C0 36.4745 10.5152 46.9946 23.4864 46.9946Z" fill="white"/>
<path d="M37.035 9.95251C37.6932 10.611 38.3024 11.3075 38.8735 12.0421C38.7592 11.8952 38.645 11.7483 38.5308 11.6014C39.6404 13.0543 40.5651 14.6378 41.2776 16.3193C41.2069 16.1452 41.1307 15.971 41.06 15.7969C41.7889 17.5382 42.2838 19.3667 42.534 21.2332C42.5068 21.0427 42.4796 20.8468 42.4579 20.6563C42.7027 22.5392 42.7027 24.4438 42.4579 26.3266C42.4851 26.1361 42.5123 25.9402 42.534 25.7498C42.2838 27.6163 41.7889 29.4447 41.06 31.186C41.1307 31.0119 41.2069 30.8378 41.2776 30.6636C40.5651 32.3451 39.6458 33.9341 38.5308 35.3816C38.645 35.2347 38.7592 35.0877 38.8735 34.9408C37.7367 36.4101 36.415 37.7324 34.9464 38.8697C35.0932 38.7554 35.2401 38.6412 35.3869 38.5269C33.9347 39.637 32.3519 40.5621 30.6712 41.275C30.8452 41.2042 31.0193 41.128 31.1933 41.0573C29.4528 41.7865 27.6252 42.2817 25.7596 42.532C25.95 42.5048 26.1458 42.4776 26.3361 42.4558C24.4542 42.7007 22.5505 42.7007 20.6685 42.4558C20.8589 42.483 21.0547 42.5102 21.2451 42.532C19.3794 42.2817 17.5519 41.7865 15.8113 41.0573C15.9854 41.128 16.1594 41.2042 16.3335 41.275C14.6528 40.5621 13.0645 39.6424 11.6177 38.5269C11.7646 38.6412 11.9114 38.7554 12.0583 38.8697C10.5897 37.7324 9.26798 36.4101 8.13119 34.9408C8.24542 35.0877 8.35964 35.2347 8.47386 35.3816C7.36427 33.9287 6.43961 32.3451 5.72707 30.6636C5.79778 30.8378 5.87393 31.0119 5.94464 31.186C5.21579 29.4447 4.72082 27.6163 4.47062 25.7498C4.49782 25.9402 4.52501 26.1361 4.54677 26.3266C4.30201 24.4438 4.30201 22.5392 4.54677 20.6563C4.51957 20.8468 4.49238 21.0427 4.47062 21.2332C4.72082 19.3667 5.21579 17.5382 5.94464 15.7969C5.87393 15.971 5.79778 16.1452 5.72707 16.3193C6.43961 14.6378 7.35883 13.0488 8.47386 11.6014C8.35964 11.7483 8.24542 11.8952 8.13119 12.0421C9.26798 10.5729 10.5897 9.25054 12.0583 8.11322C11.9114 8.22749 11.7646 8.34177 11.6177 8.45605C13.07 7.34594 14.6528 6.42085 16.3335 5.70799C16.1594 5.77873 15.9854 5.85491 15.8113 5.92565C17.5519 5.19647 19.3794 4.70127 21.2451 4.45095C21.0547 4.47816 20.8589 4.50537 20.6685 4.52714C22.5505 4.28226 24.4542 4.28226 26.3361 4.52714C26.1458 4.49993 25.95 4.47272 25.7596 4.45095C27.6252 4.70127 29.4528 5.19647 31.1933 5.92565C31.0193 5.85491 30.8452 5.77873 30.6712 5.70799C32.3519 6.42085 33.9401 7.3405 35.3869 8.45605C35.2401 8.34177 35.0932 8.22749 34.9464 8.11322C35.6807 8.6846 36.3769 9.29407 37.035 9.95251C37.84 10.7579 39.314 10.8177 40.1136 9.95251C40.9077 9.08728 40.973 7.7323 40.1136 6.87251C36.7304 3.5041 32.2975 1.13696 27.5763 0.353351C25.2809 -0.0275683 22.9747 -0.125519 20.6631 0.173775C19.4012 0.337026 18.1556 0.560136 16.9318 0.919288C15.7352 1.26756 14.5657 1.7301 13.4344 2.25251C9.06673 4.27682 5.34089 7.7976 2.9966 11.9932C0.712145 16.0853 -0.359375 20.9121 0.102956 25.5865C0.34228 28.019 0.902516 30.3535 1.84893 32.6063C2.81711 34.9027 4.11707 36.9869 5.74339 38.886C8.86004 42.532 13.1842 45.1767 17.8401 46.314C22.371 47.4186 27.2717 47.201 31.6448 45.5413C32.8197 45.095 33.9673 44.5835 35.0606 43.9632C36.1865 43.3265 37.2308 42.581 38.2425 41.781C40.1626 40.2628 41.8052 38.4072 43.1541 36.3774C45.7486 32.4703 47.0975 27.6979 46.9887 23.0072C46.8799 18.3001 45.3679 13.5821 42.5721 9.77838C41.8161 8.75534 41.0111 7.77039 40.1136 6.87251C39.3086 6.06714 37.8291 6.00728 37.035 6.87251C36.2355 7.74318 36.1756 9.09273 37.035 9.95251Z" fill="#EB1815"/>
<path d="M15.4637 17.2012C15.4637 17.2774 15.4582 17.3536 15.4474 17.4243C15.4746 17.2339 15.5018 17.038 15.5235 16.8475C15.5018 16.9944 15.4637 17.1305 15.4093 17.272C15.48 17.0978 15.5562 16.9237 15.6269 16.7496C15.567 16.8802 15.4963 16.9999 15.4093 17.1196C15.5235 16.9727 15.6377 16.8258 15.752 16.6788C15.6595 16.7931 15.5616 16.8911 15.4528 16.9781C15.5997 16.8638 15.7465 16.7496 15.8934 16.6353C15.7792 16.7224 15.6541 16.7931 15.5235 16.853C15.6976 16.7822 15.8716 16.706 16.0457 16.6353C15.9097 16.6897 15.7683 16.7278 15.6214 16.7496C15.8118 16.7224 16.0076 16.6952 16.198 16.6734C16.0457 16.6897 15.8988 16.6897 15.7465 16.6734C15.9369 16.7006 16.1327 16.7278 16.3231 16.7496C16.1762 16.7278 16.0402 16.6897 15.8988 16.6353C16.0729 16.706 16.2469 16.7822 16.421 16.853C16.2904 16.7931 16.1708 16.7224 16.0511 16.6353C16.198 16.7496 16.3448 16.8638 16.4917 16.9781C16.3775 16.8856 16.2796 16.7877 16.1925 16.6788C16.3068 16.8258 16.421 16.9727 16.5352 17.1196C16.4482 17.0053 16.3775 16.8802 16.3176 16.7496C16.3883 16.9237 16.4645 17.0978 16.5352 17.272C16.4808 17.1359 16.4427 16.9944 16.421 16.8475C16.4482 17.038 16.4754 17.2339 16.4971 17.4243C16.4808 17.272 16.4808 17.125 16.4971 16.9727C16.4699 17.1631 16.4427 17.359 16.421 17.5495C16.4427 17.4026 16.4808 17.2665 16.5352 17.1251C16.4645 17.2992 16.3883 17.4733 16.3176 17.6475C16.3775 17.5169 16.4482 17.3971 16.5352 17.2774C16.421 17.4243 16.3068 17.5713 16.1925 17.7182C16.285 17.6039 16.3829 17.506 16.4917 17.4189C16.3448 17.5332 16.198 17.6475 16.0511 17.7617C16.1653 17.6747 16.2904 17.6039 16.421 17.5441C16.2469 17.6148 16.0729 17.691 15.8988 17.7617C16.0348 17.7073 16.1762 17.6692 16.3231 17.6475C16.1327 17.6747 15.9369 17.7019 15.7465 17.7236C15.8988 17.7073 16.0457 17.7073 16.198 17.7236C16.0076 17.6964 15.8118 17.6692 15.6214 17.6475C15.7683 17.6692 15.9043 17.7073 16.0457 17.7617C15.8716 17.691 15.6976 17.6148 15.5235 17.5441C15.6541 17.6039 15.7737 17.6747 15.8934 17.7617C15.7465 17.6475 15.5997 17.5332 15.4528 17.4189C15.567 17.5114 15.6649 17.6094 15.752 17.7182C15.6377 17.5713 15.5235 17.4243 15.4093 17.2774C15.4963 17.3917 15.567 17.5169 15.6269 17.6475C15.5562 17.4733 15.48 17.2992 15.4093 17.1251C15.4637 17.2611 15.5018 17.4026 15.5235 17.5495C15.4963 17.359 15.4691 17.1631 15.4474 16.9727C15.4582 17.0489 15.4637 17.1251 15.4637 17.2012C15.4746 17.7672 15.6976 18.3385 16.1001 18.7412C16.4754 19.1167 17.0954 19.4051 17.6394 19.3779C18.7979 19.3235 19.8422 18.4202 19.815 17.2012C19.777 15.5034 18.7272 14.1049 17.1335 13.5444C15.7737 13.0655 14.0767 13.5281 13.1412 14.6219C12.0588 15.8843 11.8031 17.6801 12.6571 19.1439C13.5165 20.6132 15.208 21.2662 16.8507 20.9397C18.5912 20.5914 19.7715 18.9208 19.8096 17.2067C19.8368 16.0694 18.7925 14.9756 17.6339 15.03C16.4427 15.079 15.4909 15.9823 15.4637 17.2012Z" fill="#EB1815"/>
<path d="M30.503 17.3046C30.503 17.3808 30.4976 17.457 30.4867 17.5277C30.5139 17.3373 30.5411 17.1414 30.5628 16.9509C30.5411 17.0978 30.503 17.2339 30.4486 17.3754C30.5193 17.2012 30.5955 17.0271 30.6662 16.853C30.6063 16.9836 30.5356 17.1033 30.4486 17.223C30.5628 17.0761 30.677 16.9291 30.7913 16.7822C30.6988 16.8965 30.6009 16.9944 30.4921 17.0815C30.639 16.9672 30.7858 16.853 30.9327 16.7387C30.8185 16.8258 30.6934 16.8965 30.5628 16.9564C30.7369 16.8856 30.9109 16.8094 31.085 16.7387C30.949 16.7931 30.8076 16.8312 30.6607 16.853C30.8511 16.8258 31.0469 16.7985 31.2373 16.7768C31.085 16.7931 30.9381 16.7931 30.7858 16.7768C30.9762 16.804 31.172 16.8312 31.3624 16.853C31.2155 16.8312 31.0795 16.7931 30.9381 16.7387C31.1122 16.8094 31.2862 16.8856 31.4603 16.9564C31.3298 16.8965 31.2101 16.8258 31.0904 16.7387C31.2373 16.853 31.3841 16.9672 31.531 17.0815C31.4168 16.989 31.3189 16.8911 31.2318 16.7822C31.3461 16.9291 31.4603 17.0761 31.5745 17.223C31.4875 17.1087 31.4168 16.9836 31.3569 16.853C31.4277 17.0271 31.5038 17.2012 31.5745 17.3754C31.5201 17.2393 31.4821 17.0978 31.4603 16.9509C31.4875 17.1414 31.5147 17.3373 31.5364 17.5277C31.5201 17.3754 31.5201 17.2284 31.5364 17.0761C31.5092 17.2665 31.4821 17.4624 31.4603 17.6529C31.4821 17.506 31.5201 17.3699 31.5745 17.2284C31.5038 17.4026 31.4277 17.5767 31.3569 17.7508C31.4168 17.6202 31.4875 17.5005 31.5745 17.3808C31.4603 17.5277 31.3461 17.6747 31.2318 17.8216C31.3243 17.7073 31.4222 17.6094 31.531 17.5223C31.3841 17.6366 31.2373 17.7508 31.0904 17.8651C31.2046 17.778 31.3298 17.7073 31.4603 17.6474C31.2862 17.7182 31.1122 17.7944 30.9381 17.8651C31.0741 17.8107 31.2155 17.7726 31.3624 17.7508C31.172 17.778 30.9762 17.8053 30.7858 17.827C30.9381 17.8107 31.085 17.8107 31.2373 17.827C31.0469 17.7998 30.8511 17.7726 30.6607 17.7508C30.8076 17.7726 30.9436 17.8107 31.085 17.8651C30.9109 17.7944 30.7369 17.7182 30.5628 17.6474C30.6934 17.7073 30.813 17.778 30.9327 17.8651C30.7858 17.7508 30.639 17.6366 30.4921 17.5223C30.6063 17.6148 30.7042 17.7127 30.7913 17.8216C30.677 17.6747 30.5628 17.5277 30.4486 17.3808C30.5356 17.4951 30.6063 17.6202 30.6662 17.7508C30.5955 17.5767 30.5193 17.4026 30.4486 17.2284C30.503 17.3645 30.5411 17.506 30.5628 17.6529C30.5356 17.4624 30.5084 17.2665 30.4867 17.0761C30.4976 17.1577 30.503 17.2284 30.503 17.3046C30.5139 17.8706 30.7369 18.4419 31.1394 18.8446C31.5147 19.2201 32.1348 19.5085 32.6787 19.4813C33.8372 19.4269 34.8815 18.5236 34.8543 17.3046C34.8163 15.6068 33.7665 14.2083 32.1728 13.6478C30.813 13.1689 29.116 13.6315 28.1805 14.7253C27.0981 15.9877 26.8424 17.7835 27.6964 19.2473C28.5558 20.7166 30.2474 21.3696 31.89 21.0431C33.6305 20.6948 34.8108 19.0242 34.8489 17.3101C34.8761 16.1727 33.8318 15.079 32.6732 15.1334C31.4766 15.1824 30.5302 16.0857 30.503 17.3046Z" fill="#EB1815"/>
<path d="M32.1184 34.2827C32.6841 35.3602 34.0983 35.5942 35.0882 35.0718C35.5614 34.8215 35.9476 34.2773 36.089 33.7712C36.2468 33.1998 36.138 32.6121 35.8715 32.0952C34.751 29.9348 33.0268 28.1119 30.9871 26.795C27.8541 24.7706 23.9325 24.1721 20.3154 24.9829C16.4209 25.8535 12.9562 28.5526 11.1123 32.0897C10.5521 33.1726 10.8675 34.4025 11.8955 35.0664C12.8474 35.6813 14.3432 35.2949 14.8708 34.2827C15.1971 33.6624 15.567 33.0747 15.9912 32.5196C15.877 32.6666 15.7628 32.8135 15.6486 32.9604C16.2741 32.1496 16.9975 31.4204 17.8079 30.7892C17.6611 30.9034 17.5142 31.0177 17.3674 31.132C18.1832 30.5008 19.0753 29.9838 20.0217 29.5811C19.8476 29.6519 19.6736 29.728 19.4995 29.7988C20.4514 29.407 21.4467 29.1349 22.4693 28.9934C22.2789 29.0152 22.0831 29.0424 21.8928 29.0696C22.9588 28.9281 24.0304 28.9281 25.0964 29.0696C24.9061 29.0478 24.7103 29.0206 24.5199 28.9934C25.5425 29.1349 26.5378 29.4015 27.4897 29.7988C27.3156 29.728 27.1416 29.6519 26.9675 29.5811C27.9139 29.9838 28.806 30.5062 29.6218 31.132C29.475 31.0177 29.3281 30.9034 29.1813 30.7892C29.9917 31.4204 30.7151 32.1496 31.3406 32.9604C31.2264 32.8135 31.1122 32.6666 30.998 32.5196C31.4222 33.0747 31.7975 33.6624 32.1184 34.2827Z" fill="#EB1815"/>
</g>
<defs>
<clipPath id="clip0">
<rect width="47" height="47" fill="white"/>
</clipPath>
</defs>
</svg>
