<svg width="47" height="47" viewBox="0 0 47 47" fill="none" xmlns="http://www.w3.org/2000/svg">
<g clip-path="url(#clip0)">
<path d="M23.4969 46.9946C36.4681 46.9946 46.9833 36.4745 46.9833 23.4973C46.9833 10.5201 36.4681 0 23.4969 0C10.5257 0 0.010498 10.5201 0.010498 23.4973C0.010498 36.4745 10.5257 46.9946 23.4969 46.9946Z" fill="white"/>
<path d="M37.034 9.95184C37.6922 10.6103 38.3014 11.3068 38.8725 12.0415C38.7583 11.8945 38.644 11.7476 38.5298 11.6007C39.6394 13.0536 40.5641 14.6372 41.2766 16.3186C41.2059 16.1445 41.1298 15.9704 41.059 15.7962C41.7879 17.5376 42.2829 19.366 42.5331 21.2325C42.5059 21.042 42.4787 20.8461 42.4569 20.6557C42.7017 22.5385 42.7017 24.4431 42.4569 26.3259C42.4841 26.1355 42.5113 25.9396 42.5331 25.7491C42.2829 27.6156 41.7879 29.444 41.059 31.1854C41.1298 31.0112 41.2059 30.8371 41.2766 30.663C40.5641 32.3445 39.6449 33.9334 38.5298 35.3809C38.644 35.234 38.7583 35.0871 38.8725 34.9401C37.7357 36.4094 36.414 37.7317 34.9454 38.8691C35.0923 38.7548 35.2391 38.6405 35.386 38.5262C33.9337 39.6363 32.3509 40.5614 30.6702 41.2743C30.8443 41.2035 31.0183 41.1274 31.1924 41.0566C29.4518 41.7858 27.6243 42.281 25.7586 42.5313C25.949 42.5041 26.1448 42.4769 26.3352 42.4551C24.4532 42.7 22.5495 42.7 20.6675 42.4551C20.8579 42.4823 21.0537 42.5096 21.2441 42.5313C19.3785 42.281 17.5509 41.7858 15.8103 41.0566C15.9844 41.1274 16.1585 41.2035 16.3325 41.2743C14.6518 40.5614 13.0636 39.6418 11.6167 38.5262C11.7636 38.6405 11.9105 38.7548 12.0573 38.8691C10.5887 37.7317 9.26701 36.4094 8.13022 34.9401C8.24444 35.0871 8.35866 35.234 8.47289 35.3809C7.36329 33.928 6.43863 32.3445 5.7261 30.663C5.79681 30.8371 5.87295 31.0112 5.94366 31.1854C5.21481 29.444 4.71985 27.6156 4.46964 25.7491C4.49684 25.9396 4.52404 26.1355 4.54579 26.3259C4.30103 24.4431 4.30103 22.5385 4.54579 20.6557C4.5186 20.8461 4.4914 21.042 4.46964 21.2325C4.71985 19.366 5.21481 17.5376 5.94366 15.7962C5.87295 15.9704 5.79681 16.1445 5.7261 16.3186C6.43863 14.6372 7.35785 13.0482 8.47289 11.6007C8.35866 11.7476 8.24444 11.8945 8.13022 12.0415C9.26701 10.5722 10.5887 9.24986 12.0573 8.11255C11.9105 8.22682 11.7636 8.3411 11.6167 8.45538C13.069 7.34527 14.6518 6.42018 16.3325 5.70732C16.1585 5.77806 15.9844 5.85424 15.8103 5.92498C17.5509 5.1958 19.3785 4.7006 21.2441 4.45028C21.0537 4.47749 20.8579 4.5047 20.6675 4.52647C22.5495 4.28159 24.4532 4.28159 26.3352 4.52647C26.1448 4.49926 25.949 4.47205 25.7586 4.45028C27.6243 4.7006 29.4518 5.1958 31.1924 5.92498C31.0183 5.85424 30.8443 5.77806 30.6702 5.70732C32.3509 6.42018 33.9391 7.33983 35.386 8.45538C35.2391 8.3411 35.0923 8.22682 34.9454 8.11255C35.6797 8.68393 36.3759 9.2934 37.034 9.95184C37.839 10.7572 39.3131 10.8171 40.1126 9.95184C40.9067 9.08661 40.972 7.73163 40.1126 6.87184C36.7295 3.50343 32.2965 1.13628 27.5753 0.35268C25.28 -0.0282397 22.9738 -0.12619 20.6621 0.173103C19.4002 0.336354 18.1546 0.559464 16.9308 0.918617C15.7342 1.26689 14.5648 1.72943 13.4334 2.25183C9.06576 4.27615 5.33991 7.79693 2.99563 11.9925C0.711168 16.0846 -0.360351 20.9114 0.101979 25.5859C0.341304 28.0183 0.90154 30.3528 1.84796 32.6057C2.81613 34.9021 4.1161 36.9862 5.74241 38.8854C8.85907 42.5313 13.1832 45.176 17.8392 46.3133C22.37 47.418 27.2707 47.2003 31.6438 45.5406C32.8187 45.0944 33.9663 44.5828 35.0596 43.9625C36.1855 43.3258 37.2299 42.5803 38.2415 41.7804C40.1616 40.2621 41.8042 38.4065 43.1531 36.3768C45.7476 32.4696 47.0965 27.6972 46.9878 23.0065C46.879 18.2994 45.3669 13.5815 42.5711 9.77771C41.8151 8.75467 41.0101 7.76972 40.1126 6.87184C39.3076 6.06647 37.8282 6.00661 37.034 6.87184C36.2345 7.74251 36.1747 9.09206 37.034 9.95184Z" fill="#A2B800"/>
<path d="M15.4637 17.2012C15.4637 17.2774 15.4582 17.3536 15.4474 17.4243C15.4746 17.2339 15.5018 17.038 15.5235 16.8475C15.5018 16.9944 15.4637 17.1305 15.4093 17.272C15.48 17.0978 15.5561 16.9237 15.6269 16.7496C15.567 16.8802 15.4963 16.9999 15.4093 17.1196C15.5235 16.9727 15.6377 16.8258 15.752 16.6788C15.6595 16.7931 15.5616 16.8911 15.4528 16.9781C15.5997 16.8638 15.7465 16.7496 15.8934 16.6353C15.7792 16.7224 15.6541 16.7931 15.5235 16.853C15.6976 16.7822 15.8716 16.706 16.0457 16.6353C15.9097 16.6897 15.7683 16.7278 15.6214 16.7496C15.8118 16.7224 16.0076 16.6952 16.198 16.6734C16.0457 16.6897 15.8988 16.6897 15.7465 16.6734C15.9369 16.7006 16.1327 16.7278 16.3231 16.7496C16.1762 16.7278 16.0402 16.6897 15.8988 16.6353C16.0729 16.706 16.2469 16.7822 16.421 16.853C16.2904 16.7931 16.1708 16.7224 16.0511 16.6353C16.198 16.7496 16.3448 16.8638 16.4917 16.9781C16.3775 16.8856 16.2796 16.7877 16.1925 16.6788C16.3068 16.8258 16.421 16.9727 16.5352 17.1196C16.4482 17.0053 16.3775 16.8802 16.3176 16.7496C16.3883 16.9237 16.4645 17.0978 16.5352 17.272C16.4808 17.1359 16.4427 16.9944 16.421 16.8475C16.4482 17.038 16.4754 17.2339 16.4971 17.4243C16.4808 17.272 16.4808 17.125 16.4971 16.9727C16.4699 17.1631 16.4427 17.359 16.421 17.5495C16.4427 17.4026 16.4808 17.2665 16.5352 17.125C16.4645 17.2992 16.3883 17.4733 16.3176 17.6475C16.3775 17.5169 16.4482 17.3971 16.5352 17.2774C16.421 17.4243 16.3068 17.5713 16.1925 17.7182C16.285 17.6039 16.3829 17.506 16.4917 17.4189C16.3448 17.5332 16.198 17.6475 16.0511 17.7617C16.1653 17.6747 16.2904 17.6039 16.421 17.5441C16.2469 17.6148 16.0729 17.691 15.8988 17.7617C16.0348 17.7073 16.1762 17.6692 16.3231 17.6475C16.1327 17.6747 15.9369 17.7019 15.7465 17.7236C15.8988 17.7073 16.0457 17.7073 16.198 17.7236C16.0076 17.6964 15.8118 17.6692 15.6214 17.6475C15.7683 17.6692 15.9043 17.7073 16.0457 17.7617C15.8716 17.691 15.6976 17.6148 15.5235 17.5441C15.6541 17.6039 15.7737 17.6747 15.8934 17.7617C15.7465 17.6475 15.5997 17.5332 15.4528 17.4189C15.567 17.5114 15.6649 17.6094 15.752 17.7182C15.6377 17.5713 15.5235 17.4243 15.4093 17.2774C15.4963 17.3917 15.567 17.5169 15.6269 17.6475C15.5561 17.4733 15.48 17.2992 15.4093 17.125C15.4637 17.2611 15.5018 17.4026 15.5235 17.5495C15.4963 17.359 15.4691 17.1631 15.4474 16.9727C15.4582 17.0489 15.4637 17.125 15.4637 17.2012C15.4746 17.7672 15.6976 18.3385 16.1001 18.7412C16.4754 19.1167 17.0954 19.4051 17.6394 19.3779C18.7979 19.3235 19.8422 18.4202 19.815 17.2012C19.7769 15.5034 18.7272 14.1049 17.1335 13.5444C15.7737 13.0655 14.0767 13.5281 13.1412 14.6219C12.0588 15.8843 11.8031 17.6801 12.6571 19.1439C13.5165 20.6132 15.208 21.2662 16.8507 20.9397C18.5912 20.5914 19.7715 18.9208 19.8096 17.2067C19.8368 16.0694 18.7925 14.9756 17.6339 15.03C16.4427 15.079 15.4909 15.9823 15.4637 17.2012Z" fill="#A2B800"/>
<path d="M30.503 17.3046C30.503 17.3808 30.4976 17.457 30.4867 17.5277C30.5139 17.3373 30.5411 17.1414 30.5628 16.9509C30.5411 17.0978 30.503 17.2339 30.4486 17.3754C30.5193 17.2012 30.5955 17.0271 30.6662 16.853C30.6063 16.9836 30.5356 17.1033 30.4486 17.223C30.5628 17.0761 30.677 16.9292 30.7913 16.7822C30.6988 16.8965 30.6009 16.9945 30.4921 17.0815C30.639 16.9672 30.7858 16.853 30.9327 16.7387C30.8185 16.8258 30.6934 16.8965 30.5628 16.9564C30.7369 16.8856 30.9109 16.8094 31.085 16.7387C30.949 16.7931 30.8076 16.8312 30.6607 16.853C30.8511 16.8258 31.0469 16.7985 31.2373 16.7768C31.085 16.7931 30.9381 16.7931 30.7858 16.7768C30.9762 16.804 31.172 16.8312 31.3624 16.853C31.2155 16.8312 31.0795 16.7931 30.9381 16.7387C31.1122 16.8094 31.2862 16.8856 31.4603 16.9564C31.3298 16.8965 31.2101 16.8258 31.0904 16.7387C31.2373 16.853 31.3841 16.9672 31.531 17.0815C31.4168 16.989 31.3189 16.8911 31.2318 16.7822C31.3461 16.9292 31.4603 17.0761 31.5745 17.223C31.4875 17.1087 31.4168 16.9836 31.3569 16.853C31.4277 17.0271 31.5038 17.2012 31.5745 17.3754C31.5201 17.2393 31.482 17.0978 31.4603 16.9509C31.4875 17.1414 31.5147 17.3373 31.5364 17.5277C31.5201 17.3754 31.5201 17.2284 31.5364 17.0761C31.5092 17.2665 31.482 17.4624 31.4603 17.6529C31.482 17.506 31.5201 17.3699 31.5745 17.2284C31.5038 17.4026 31.4277 17.5767 31.3569 17.7508C31.4168 17.6202 31.4875 17.5005 31.5745 17.3808C31.4603 17.5277 31.3461 17.6747 31.2318 17.8216C31.3243 17.7073 31.4222 17.6094 31.531 17.5223C31.3841 17.6366 31.2373 17.7508 31.0904 17.8651C31.2046 17.7781 31.3298 17.7073 31.4603 17.6475C31.2862 17.7182 31.1122 17.7944 30.9381 17.8651C31.0741 17.8107 31.2155 17.7726 31.3624 17.7508C31.172 17.7781 30.9762 17.8053 30.7858 17.827C30.9381 17.8107 31.085 17.8107 31.2373 17.827C31.0469 17.7998 30.8511 17.7726 30.6607 17.7508C30.8076 17.7726 30.9436 17.8107 31.085 17.8651C30.9109 17.7944 30.7369 17.7182 30.5628 17.6475C30.6934 17.7073 30.813 17.7781 30.9327 17.8651C30.7858 17.7508 30.639 17.6366 30.4921 17.5223C30.6063 17.6148 30.7042 17.7128 30.7913 17.8216C30.677 17.6747 30.5628 17.5277 30.4486 17.3808C30.5356 17.4951 30.6063 17.6202 30.6662 17.7508C30.5955 17.5767 30.5193 17.4026 30.4486 17.2284C30.503 17.3645 30.5411 17.506 30.5628 17.6529C30.5356 17.4624 30.5084 17.2665 30.4867 17.0761C30.4976 17.1577 30.503 17.2284 30.503 17.3046C30.5139 17.8706 30.7369 18.4419 31.1394 18.8446C31.5147 19.2201 32.1347 19.5085 32.6787 19.4813C33.8372 19.4269 34.8815 18.5236 34.8543 17.3046C34.8163 15.6068 33.7665 14.2083 32.1728 13.6478C30.813 13.1689 29.116 13.6315 28.1805 14.7253C27.0981 15.9877 26.8424 17.7835 27.6964 19.2473C28.5558 20.7166 30.2474 21.3696 31.89 21.0431C33.6305 20.6948 34.8108 19.0242 34.8489 17.3101C34.8761 16.1728 33.8318 15.079 32.6732 15.1334C31.4766 15.1824 30.5302 16.0857 30.503 17.3046Z" fill="#A2B800"/>
<path d="M32.1184 27.8887C31.7975 28.5091 31.4222 29.0968 30.998 29.6518C31.1122 29.5049 31.2264 29.358 31.3406 29.211C30.7151 30.0219 29.9917 30.751 29.1813 31.3823C29.3281 31.268 29.475 31.1537 29.6218 31.0395C28.806 31.6653 27.9139 32.1877 26.9675 32.5903C27.1416 32.5196 27.3156 32.4434 27.4897 32.3727C26.5378 32.7699 25.5425 33.0366 24.5199 33.1781C24.7103 33.1508 24.9061 33.1236 25.0964 33.1019C24.0304 33.2434 22.9588 33.2434 21.8928 33.1019C22.0831 33.1291 22.2789 33.1563 22.4693 33.1781C21.4467 33.0366 20.4514 32.7645 19.4995 32.3727C19.6736 32.4434 19.8476 32.5196 20.0217 32.5903C19.0753 32.1877 18.1832 31.6707 17.3674 31.0395C17.5142 31.1537 17.6611 31.268 17.8079 31.3823C16.9975 30.751 16.2741 30.0219 15.6486 29.211C15.7628 29.358 15.877 29.5049 15.9912 29.6518C15.567 29.0968 15.1971 28.5091 14.8708 27.8887C14.3432 26.8765 12.8474 26.4902 11.8955 27.1051C10.8675 27.769 10.5521 28.9988 11.1123 30.0817C12.9562 33.6188 16.4209 36.3179 20.3154 37.1886C23.9325 37.9994 27.8541 37.4008 30.9871 35.3765C33.0268 34.0596 34.751 32.2366 35.8715 30.0763C36.138 29.5593 36.2468 28.9716 36.089 28.4002C35.9476 27.8941 35.5614 27.35 35.0882 27.0997C34.0983 26.5773 32.6841 26.8112 32.1184 27.8887Z" fill="#A2B800"/>
</g>
<defs>
<clipPath id="clip0">
<rect width="47" height="47" fill="white"/>
</clipPath>
</defs>
</svg>
